<?xml version="1.0" encoding="utf-8"?>
<svg id="master-artboard" viewBox="0 0 43.253456115722656 53.947303771972656" version="1.1" xmlns="http://www.w3.org/2000/svg" x="0px" y="0px" style="enable-background:new 0 0 1400 980;" width="43.253456115722656px" height="53.947303771972656px"><rect id="ee-background" x="0" y="0" width="43.253456115722656" height="53.947303771972656" style="fill: white; fill-opacity: 0; pointer-events: none;"/><defs><style id="ee-google-fonts">@import url(https://fonts.googleapis.com/css?family=Passion+One:400,700,900);</style></defs><path d="M 584.58740234375 309.6741943359375 C 584.58740234375 309.6741943359375 584.58740234375 308.6175231933594 584.58740234375 306.50421142578125 C 584.58740234375 304.39752197265625 585.8673706054688 302.1708679199219 588.4273681640625 299.82421875 C 590.9873657226562 297.4775390625 594.5407104492188 296.30419921875 599.08740234375 296.30419921875 C 603.6273803710938 296.30419921875 608.307373046875 296.7308654785156 613.1273803710938 297.5841979980469 L 611.6574096679688 308.8442077636719 C 606.3240356445312 307.77752685546875 602.827392578125 307.24420166015625 601.1673583984375 307.24420166015625 C 599.500732421875 307.24420166015625 598.6673583984375 307.7575378417969 598.6673583984375 308.7842102050781 C 598.6673583984375 309.1642150878906 598.7940673828125 309.4308776855469 599.04736328125 309.5841979980469 C 599.307373046875 309.7308654785156 599.500732421875 309.8475341796875 599.6273803710938 309.9342041015625 C 599.7540283203125 310.0208740234375 600.000732421875 310.1275329589844 600.3673706054688 310.25421142578125 C 600.7274169921875 310.380859375 601.0240478515625 310.4975280761719 601.2573852539062 310.6042175292969 C 601.49072265625 310.71087646484375 602.2607421875 311.0308837890625 603.5673828125 311.564208984375 C 604.8673706054688 312.0975341796875 605.847412109375 312.5242004394531 606.5073852539062 312.8442077636719 C 607.1673583984375 313.1642150878906 608.0740356445312 313.6875305175781 609.2274169921875 314.4142150878906 C 612.5540771484375 316.5875244140625 614.2174072265625 319.78753662109375 614.2174072265625 324.0141906738281 C 614.2174072265625 328.23419189453125 612.960693359375 331.5075378417969 610.4473876953125 333.8341979980469 C 607.9273681640625 336.1608581542969 604.3107299804688 337.32421875 599.597412109375 337.32421875 C 594.884033203125 337.32421875 590.2640380859375 336.7475280761719 585.7373657226562 335.5942077636719 L 586.6373901367188 324.7842102050781 C 592.3507080078125 326.2308654785156 596.210693359375 326.9541931152344 598.2174072265625 326.9541931152344 C 599.5440673828125 326.9541931152344 600.2073974609375 326.48419189453125 600.2073974609375 325.544189453125 C 600.2073974609375 325.1175231933594 600.04736328125 324.77752685546875 599.7274169921875 324.5242004394531 C 599.4074096679688 324.2708740234375 598.9373779296875 323.99420166015625 598.3173828125 323.6942138671875 C 597.6973876953125 323.3941955566406 596.7907104492188 322.9975280761719 595.597412109375 322.50421142578125 C 594.404052734375 322.0175476074219 593.4006958007812 321.59088134765625 592.58740234375 321.2242126464844 C 591.7740478515625 320.86419677734375 590.8140258789062 320.3008728027344 589.7073974609375 319.5342102050781 C 586.2940673828125 317.1875305175781 584.58740234375 313.90087890625 584.58740234375 309.6741943359375 Z" transform="matrix(1, 0, 0, 1, -574.6651000976562, -290.3827819824219)" style="fill: rgb(255, 255, 255); white-space: pre; color: rgb(51, 51, 51);"/></svg>